<svg width="49" height="41" viewBox="0 0 49 41" fill="none" xmlns="http://www.w3.org/2000/svg">
<path d="M24.3213 30.7639C14.8154 30.7639 6.09473 26.4046 0.400028 18.8025L0.00292969 18.272L0.400028 17.7414C6.09029 10.1371 14.8087 5.77344 24.3213 5.77344C33.8339 5.77344 42.5479 10.1371 48.2426 17.7436L48.6397 18.2742L48.2426 18.8047C42.5479 26.4069 33.8295 30.7661 24.3213 30.7661V30.7639ZM2.23023 18.272C7.58995 25.0938 15.6029 28.991 24.3191 28.991C33.0353 28.991 41.0505 25.0938 46.408 18.272C41.0482 11.4457 33.0353 7.5441 24.3191 7.5441C15.6029 7.5441 7.58773 11.4457 2.23023 18.272Z" fill="#8270DC"/>
<path d="M2.22952 12.5007C7.58923 19.3225 15.6022 23.2198 24.3184 23.2198C33.0346 23.2198 41.0498 19.3225 46.4072 12.5007C41.0475 5.67452 33.0346 1.77287 24.3184 1.77287C15.6022 1.77287 7.58702 5.67231 2.22952 12.5007ZM24.3184 24.9926C14.8124 24.9926 6.0918 20.6334 0.397098 13.0313L0 12.5007L0.397098 11.9702C6.08958 4.36366 14.808 0 24.3206 0C33.8332 0 42.5472 4.36366 48.2419 11.9702L48.639 12.5007L48.2419 13.0313C42.5472 20.6334 33.8288 24.9926 24.3206 24.9926H24.3184Z" fill="#6347D9"/>
<path d="M24.3203 40.58L0.671875 27.2038L1.55037 25.6631L24.3203 38.5418L47.0902 25.6631L47.9665 27.2038L24.3203 40.58Z" fill="#B4A6E6"/>
</svg>
